<svg width="0" height="0" class="hidden">
  <symbol fill="none" xmlns="http://www.w3.org/2000/svg" viewBox="0 0 32 32" id="behance">
    <g clip-path="url(#clip0_55_299)">
      <path d="M13.4766 18.0702V18.9351C13.4766 19.8681 12.7202 20.6245 11.7873 20.6245H7.96416V16.5346H11.9409C12.7891 16.5344 13.4766 17.222 13.4766 18.0702ZM12.8462 13.1639V12.5172C12.8462 11.861 12.3142 11.3291 11.658 11.3291H7.96416V14.352H11.658C12.3142 14.352 12.8462 13.8201 12.8462 13.1639ZM32 0.000976562V32.001H0V0.000976562H32ZM19.1158 11.2806H24.8223V9.72861H19.1158V11.2806ZM16.4108 18.3288C16.4108 15.8392 14.2123 15.0633 14.2123 15.0633C14.2123 15.0633 15.9906 14.6214 15.9906 12.2759C15.9906 9.84189 14.3417 8.69397 12.0784 8.69397C9.33032 8.69397 5.03023 8.69397 5.03023 8.69397V23.3078H11.6582C11.6582 23.3078 13.3394 23.3078 14.568 22.4026C15.7965 21.4973 16.4108 20.3334 16.4108 18.3288ZM22.4545 12.2344C17.2945 12.2344 16.9904 16.6153 16.9904 18.1672C16.9904 19.7192 17.8957 23.2109 21.9614 23.2109C25.7472 23.2109 26.4797 21.4165 26.706 20.786C26.9323 20.1555 26.8677 19.6221 26.8677 19.6221H24.4752C24.4752 19.6221 24.6692 20.9316 22.2201 20.9316C19.771 20.9316 19.8842 18.636 19.8842 18.636H26.9324C26.9324 18.636 27.6837 12.2344 22.4545 12.2344ZM22.3036 14.3683C20.1374 14.3683 19.9758 16.4859 19.9758 16.4859H24.389C24.389 16.4859 24.4698 14.3683 22.3036 14.3683Z" fill="#292C2E"></path>
    </g>
    <defs>
      <clipPath id="clip0_55_299">
        <rect width="32" height="32" fill="white" transform="translate(0 0.000976562)"></rect>
      </clipPath>
    </defs>
  </symbol>
  <symbol fill="none" xmlns="http://www.w3.org/2000/svg" viewBox="0 0 114 27" id="nomi-logo-ua">
    <path d="M0 26.501V0.500977H7.9L8 3.55098H8.1C9.2 2.31764 10.4333 1.41764 11.8 0.850978C13.1667 0.284311 14.75 0.000976562 16.55 0.000976562C19.6167 0.000976562 21.8667 0.850977 23.3 2.55098C24.7667 4.21764 25.5 6.86764 25.5 10.501V26.501H17.15V12.151C17.15 10.2843 16.85 8.93431 16.25 8.10098C15.65 7.26764 14.6833 6.85098 13.35 6.85098C12.3833 6.85098 11.5167 7.05098 10.75 7.45098C9.98333 7.81765 9.38333 8.33431 8.95 9.00098C8.51667 9.66764 8.3 10.451 8.3 11.351V26.501H0Z" fill="url(#paint0_linear_55_317)"></path>
    <path d="M43.1547 27.001C38.7547 27.001 35.3714 25.851 33.0047 23.551C30.6714 21.2176 29.5047 17.8676 29.5047 13.501C29.5047 9.13431 30.6714 5.80098 33.0047 3.50098C35.3714 1.16764 38.7547 0.000976562 43.1547 0.000976562C47.588 0.000976562 50.9714 1.16764 53.3047 3.50098C55.6714 5.80098 56.8547 9.13431 56.8547 13.501C56.8547 17.8676 55.6714 21.2176 53.3047 23.551C50.9714 25.851 47.588 27.001 43.1547 27.001ZM43.1547 20.851C44.9547 20.851 46.288 20.251 47.1547 19.051C48.0547 17.8176 48.5047 15.9676 48.5047 13.501C48.5047 11.001 48.0547 9.15098 47.1547 7.95098C46.288 6.75098 44.9547 6.15098 43.1547 6.15098C41.388 6.15098 40.0547 6.75098 39.1547 7.95098C38.288 9.15098 37.8547 11.001 37.8547 13.501C37.8547 15.9676 38.288 17.8176 39.1547 19.051C40.0547 20.251 41.388 20.851 43.1547 20.851Z" fill="url(#paint1_linear_55_317)"></path>
    <path d="M61.5234 26.501V0.500977H69.2734L69.3234 3.55098H69.4234C70.4568 2.35098 71.5568 1.46764 72.7234 0.900977C73.9234 0.300977 75.3234 0.000976562 76.9234 0.000976562C78.5568 0.000976562 79.9234 0.300977 81.0234 0.900977C82.1234 1.50098 82.9401 2.38431 83.4734 3.55098H83.5734C84.6734 2.31764 85.8568 1.41764 87.1234 0.850978C88.4234 0.284311 89.9068 0.000976562 91.5734 0.000976562C94.3068 0.000976562 96.2734 0.717643 97.4734 2.15098C98.7068 3.58431 99.3234 5.90098 99.3234 9.10098V26.501H91.1734V11.151C91.1734 9.65098 90.9401 8.56764 90.4734 7.90098C90.0401 7.20098 89.3234 6.85098 88.3234 6.85098C87.1901 6.85098 86.2734 7.26764 85.5734 8.10098C84.8734 8.90098 84.5234 9.98431 84.5234 11.351V26.501H76.3234V11.001C76.3234 9.60098 76.0901 8.56764 75.6234 7.90098C75.1568 7.20098 74.4568 6.85098 73.5234 6.85098C72.7901 6.85098 72.1234 7.05098 71.5234 7.45098C70.9568 7.81765 70.5068 8.33431 70.1734 9.00098C69.8401 9.66764 69.6734 10.451 69.6734 11.351V26.501H61.5234Z" fill="url(#paint2_linear_55_317)"></path>
    <path d="M105.232 26.501V1.15098H113.732V26.501H105.232Z" fill="url(#paint3_linear_55_317)"></path>
    <defs>
      <linearGradient id="paint0_linear_55_317" x1="56.8658" y1="0.000976562" x2="56.8658" y2="27.001" gradientUnits="userSpaceOnUse">
        <stop offset="0.524058" stop-color="#005EB8"></stop>
        <stop offset="0.524158" stop-color="#FFD100"></stop>
      </linearGradient>
      <linearGradient id="paint1_linear_55_317" x1="56.8658" y1="0.000976562" x2="56.8658" y2="27.001" gradientUnits="userSpaceOnUse">
        <stop offset="0.524058" stop-color="#005EB8"></stop>
        <stop offset="0.524158" stop-color="#FFD100"></stop>
      </linearGradient>
      <linearGradient id="paint2_linear_55_317" x1="56.8658" y1="0.000976562" x2="56.8658" y2="27.001" gradientUnits="userSpaceOnUse">
        <stop offset="0.524058" stop-color="#005EB8"></stop>
        <stop offset="0.524158" stop-color="#FFD100"></stop>
      </linearGradient>
      <linearGradient id="paint3_linear_55_317" x1="56.8658" y1="0.000976562" x2="56.8658" y2="27.001" gradientUnits="userSpaceOnUse">
        <stop offset="0.524058" stop-color="#005EB8"></stop>
        <stop offset="0.524158" stop-color="#FFD100"></stop>
      </linearGradient>
    </defs>
  </symbol>
  <symbol fill="none" xmlns="http://www.w3.org/2000/svg" viewBox="0 0 32 32" id="facebook">
    <g clip-path="url(#clip0_55_297)">
      <path d="M32 0.000976562H0V32.001H17.104V19.6259H12.9387V14.7814H17.104V11.217C17.104 7.08542 19.6302 4.83298 23.3173 4.83298C24.56 4.82942 25.8009 4.89342 27.0364 5.01964V9.33964H24.4978C22.4889 9.33964 22.0978 10.289 22.0978 11.6899V14.7743H26.8978L26.2738 19.6188H22.0693V32.001H32V0.000976562Z" fill="#292C2E"></path>
    </g>
    <defs>
      <clipPath id="clip0_55_297">
        <rect width="32" height="32" fill="white" transform="translate(0 0.000976562)"></rect>
      </clipPath>
    </defs>
  </symbol>
  <symbol fill="none" xmlns="http://www.w3.org/2000/svg" viewBox="0 0 32 32" id="instagram">
    <g clip-path="url(#clip0_55_295)">
      <path d="M0 0.000976562V32.001H32V0.000976562H0ZM26.6667 3.55653C27.648 3.55653 28.4444 4.35298 28.4444 5.33431C28.4444 6.31564 27.648 7.11209 26.6667 7.11209C25.6853 7.11209 24.8889 6.31564 24.8889 5.33431C24.8889 4.35298 25.6853 3.55653 26.6667 3.55653ZM16 7.11209C20.9084 7.11209 24.8889 11.0925 24.8889 16.001C24.8889 20.9094 20.9084 24.8899 16 24.8899C11.0916 24.8899 7.11111 20.9094 7.11111 16.001C7.11111 11.0925 11.0916 7.11209 16 7.11209ZM16 10.6676C14.5855 10.6676 13.229 11.2295 12.2288 12.2297C11.2286 13.2299 10.6667 14.5865 10.6667 16.001C10.6667 17.4155 11.2286 18.772 12.2288 19.7722C13.229 20.7724 14.5855 21.3343 16 21.3343C17.4145 21.3343 18.771 20.7724 19.7712 19.7722C20.7714 18.772 21.3333 17.4155 21.3333 16.001C21.3333 14.5865 20.7714 13.2299 19.7712 12.2297C18.771 11.2295 17.4145 10.6676 16 10.6676Z" fill="#292C2E"></path>
    </g>
    <defs>
      <clipPath id="clip0_55_295">
        <rect width="32" height="32" fill="white" transform="translate(0 0.000976562)"></rect>
      </clipPath>
    </defs>
  </symbol>
  <symbol fill="none" xmlns="http://www.w3.org/2000/svg" viewBox="0 0 135 32" id="nomi-logo-white">
    <path d="M0 31.4074V0.592593H9.37734L9.49604 4.20741H9.61474C10.9204 2.74568 12.3844 1.67901 14.0067 1.00741C15.6289 0.335803 17.5083 0 19.6449 0C23.2851 0 25.9558 1.00741 27.6572 3.02222C29.3981 4.99753 30.2686 8.13827 30.2686 12.4444V31.4074H20.3571V14.4C20.3571 12.1877 20.001 10.5877 19.2888 9.6C18.5766 8.61235 17.4292 8.11852 15.8465 8.11852C14.6991 8.11852 13.6703 8.35556 12.7603 8.82963C11.8503 9.2642 11.1381 9.87654 10.6237 10.6667C10.1093 11.4568 9.85214 12.3852 9.85214 13.4519V31.4074H0Z" fill="white"></path>
    <path d="M51.2248 32C46.002 32 41.986 30.637 39.1767 27.9111C36.407 25.1457 35.0222 21.1753 35.0222 16C35.0222 10.8247 36.407 6.87408 39.1767 4.14815C41.986 1.38272 46.002 0 51.2248 0C56.4872 0 60.5032 1.38272 63.2729 4.14815C66.0822 6.87408 67.4868 10.8247 67.4868 16C67.4868 21.1753 66.0822 25.1457 63.2729 27.9111C60.5032 30.637 56.4872 32 51.2248 32ZM51.2248 24.7111C53.3614 24.7111 54.9441 24 55.9728 22.5778C57.0411 21.1161 57.5753 18.9235 57.5753 16C57.5753 13.037 57.0411 10.8444 55.9728 9.42222C54.9441 8 53.3614 7.28889 51.2248 7.28889C49.1278 7.28889 47.5451 8 46.4768 9.42222C45.4481 10.8444 44.9337 13.037 44.9337 16C44.9337 18.9235 45.4481 21.1161 46.4768 22.5778C47.5451 24 49.1278 24.7111 51.2248 24.7111Z" fill="white"></path>
    <path d="M73.0286 31.4074V0.592593H82.2279L82.2872 4.20741H82.4059C83.6325 2.78519 84.9382 1.73827 86.3231 1.06667C87.7475 0.355556 89.4093 0 91.3085 0C93.2473 0 94.8695 0.355556 96.1752 1.06667C97.4809 1.77778 98.4503 2.82469 99.0834 4.20741H99.2021C100.508 2.74568 101.912 1.67901 103.416 1.00741C104.959 0.335803 106.72 0 108.698 0C111.943 0 114.277 0.849383 115.701 2.54815C117.165 4.24691 117.897 6.99259 117.897 10.7852V31.4074H108.223V13.2148C108.223 11.437 107.946 10.1531 107.392 9.36296C106.878 8.53333 106.027 8.11852 104.84 8.11852C103.495 8.11852 102.407 8.61235 101.576 9.6C100.745 10.5481 100.33 11.8321 100.33 13.4519V31.4074H90.5963V13.037C90.5963 11.3778 90.3193 10.1531 89.7654 9.36296C89.2114 8.53333 88.3805 8.11852 87.2727 8.11852C86.4022 8.11852 85.6109 8.35556 84.8987 8.82963C84.226 9.2642 83.6919 9.87654 83.2962 10.6667C82.9005 11.4568 82.7027 12.3852 82.7027 13.4519V31.4074H73.0286Z" fill="white"></path>
    <path d="M124.91 31.4074V1.36296H135V31.4074H124.91Z" fill="white"></path>
  </symbol>
  <symbol fill="none" xmlns="http://www.w3.org/2000/svg" viewBox="0 0 341 341" id="round-text">
    <path d="M310.889 172.503L326.88 173.988L326.668 176.266L315.596 180.585L315.592 180.629L325.68 186.912L325.469 189.19L309.477 187.706L309.64 185.954L322.915 187.186L322.919 187.142L313.499 181.274L313.658 179.566L323.997 175.532L324.001 175.488L310.726 174.256L310.889 172.503Z" fill="#BFCCF4"></path>
    <path d="M305.696 206.021C306.15 204.442 306.873 203.147 307.866 202.135C308.869 201.141 310.055 200.49 311.426 200.182C312.81 199.878 314.299 199.955 315.892 200.412C317.499 200.874 318.801 201.599 319.799 202.588C320.797 203.576 321.45 204.756 321.758 206.126C322.076 207.515 322.008 208.999 321.555 210.577C321.093 212.184 320.363 213.478 319.364 214.457C318.375 215.455 317.196 216.108 315.826 216.416C314.451 216.739 312.96 216.669 311.353 216.207C309.76 215.749 308.46 215.017 307.452 214.01C306.455 213.022 305.795 211.84 305.472 210.466C305.16 209.109 305.235 207.628 305.696 206.021ZM307.24 206.464C306.88 207.719 306.828 208.879 307.087 209.945C307.355 211.03 307.889 211.961 308.687 212.74C309.5 213.523 310.555 214.101 311.852 214.473C313.148 214.846 314.342 214.914 315.432 214.678C316.537 214.446 317.483 213.94 318.272 213.159C319.071 212.397 319.651 211.388 320.011 210.134C320.368 208.893 320.412 207.731 320.143 206.647C319.889 205.567 319.356 204.635 318.543 203.852C317.74 203.087 316.69 202.519 315.394 202.146C314.097 201.773 312.898 201.696 311.798 201.914C310.708 202.15 309.761 202.656 308.958 203.433C308.169 204.213 307.596 205.224 307.24 206.464Z" fill="#BFCCF4"></path>
    <path d="M300.434 223.141L314.931 230.052L313.189 233.706C311.977 236.248 310.469 237.861 308.665 238.544C306.854 239.241 304.737 239.011 302.314 237.856C299.892 236.701 298.381 235.201 297.782 233.356C297.177 231.524 297.48 229.337 298.692 226.795L300.434 223.141ZM300.104 227.566C299.46 228.916 299.138 230.119 299.138 231.175C299.145 232.251 299.478 233.206 300.137 234.04C300.789 234.887 301.771 235.623 303.081 236.248C304.405 236.879 305.595 237.178 306.651 237.145C307.713 237.132 308.658 236.786 309.485 236.108C310.319 235.449 311.058 234.445 311.701 233.094L312.724 230.95L301.126 225.421L300.104 227.566Z" fill="#BFCCF4"></path>
    <path d="M290.8 242.282L304.157 251.199L298.489 259.689L297.172 258.809L301.862 251.783L297.508 248.876L293.061 255.536L291.762 254.669L296.209 248.009L291.14 244.625L286.45 251.651L285.132 250.772L290.8 242.282Z" fill="#BFCCF4"></path>
    <path d="M280.069 257.756L292.105 268.39L290.91 269.742L280.078 260.172L274.033 267.014L272.83 265.95L280.069 257.756Z" fill="#BFCCF4"></path>
    <path d="M267.314 271.479L278.25 283.24L276.913 284.483L265.977 272.722L267.314 271.479Z" fill="#BFCCF4"></path>
    <path d="M260.573 277.87L270.115 290.788L268.505 291.977L253.651 286.457L253.615 286.483L261.497 297.153L260.081 298.199L250.539 285.281L252.132 284.105L267.004 289.612L267.039 289.586L259.157 278.915L260.573 277.87Z" fill="#BFCCF4"></path>
    <path d="M235.14 294.339C236.737 293.533 238.261 293.134 239.71 293.142C241.147 293.157 242.45 293.559 243.621 294.349C244.798 295.151 245.769 296.312 246.535 297.831C247.308 299.363 247.664 300.835 247.603 302.245C247.542 303.656 247.098 304.939 246.269 306.097C245.426 307.261 244.22 308.239 242.648 309.031C241.784 309.467 240.916 309.782 240.044 309.975C239.179 310.181 238.333 310.247 237.506 310.171L237.235 308.607C237.99 308.67 238.774 308.612 239.586 308.432C240.386 308.259 241.165 307.98 241.925 307.597C243.156 306.977 244.098 306.206 244.751 305.285C245.39 304.371 245.728 303.347 245.763 302.212C245.792 301.097 245.493 299.917 244.865 298.673C244.238 297.429 243.464 296.481 242.543 295.828C241.616 295.195 240.589 294.867 239.461 294.845C238.319 294.829 237.12 295.138 235.863 295.772C235.169 296.123 234.518 296.541 233.909 297.029C233.288 297.523 232.788 298.03 232.409 298.549L232.397 297.792L235.062 303.076L240.424 300.371L241.108 301.726L234.174 305.224L230.548 298.034C231.057 297.35 231.721 296.679 232.538 296.02C233.356 295.361 234.223 294.801 235.14 294.339Z" fill="#BFCCF4"></path>
    <path d="M171.367 317.902L172.582 318.805L170.234 321.863L173.886 323.055L173.374 324.498L169.768 323.24L169.738 327.046L168.198 327.016L168.316 323.212L164.664 324.33L164.208 322.869L167.903 321.818L165.675 318.672L166.924 317.816L169.085 320.982L171.367 317.902Z" fill="#BFCCF4"></path>
    <path d="M110.711 297.3L103.11 311.448L99.0593 309.272C97.005 308.168 95.6833 307.033 95.0941 305.868C94.498 304.715 94.5818 303.428 95.3453 302.007C96.1019 300.598 97.1229 299.798 98.4081 299.606C99.6864 299.427 101.288 299.855 103.213 300.889L106.76 302.795L106.031 304.151L102.678 302.35C101.179 301.545 99.986 301.178 99.098 301.251C98.1902 301.329 97.4794 301.846 96.9657 302.802C96.4521 303.758 96.4166 304.63 96.8594 305.418C97.2823 306.211 98.2431 307.01 99.7418 307.815L102.319 309.2L109.16 296.467L110.711 297.3ZM102.106 292.677L105.7 303L103.704 301.927L100.052 291.574L102.106 292.677Z" fill="#BFCCF4"></path>
    <path d="M93.2616 287.476L83.7669 300.429L75.5339 294.394L76.4704 293.117L83.2839 298.111L86.3794 293.888L79.9208 289.154L80.8442 287.894L87.3029 292.628L90.9056 287.713L84.0921 282.719L85.0286 281.441L93.2616 287.476Z" fill="#BFCCF4"></path>
    <path d="M78.3278 276.262L67.0545 287.7L65.6287 286.295L68.7671 270.762L68.7358 270.731L59.4237 280.179L58.1702 278.944L69.4435 267.506L70.8537 268.895L67.7309 284.444L67.7623 284.475L77.0743 275.026L78.3278 276.262Z" fill="#BFCCF4"></path>
    <path d="M62.507 260.051L49.589 269.593L47.1839 266.337C45.5108 264.072 44.7971 261.982 45.0429 260.069C45.2799 258.143 46.4778 256.383 48.6367 254.788C50.7956 253.194 52.8301 252.566 54.7402 252.906C56.6416 253.233 58.4289 254.53 60.102 256.795L62.507 260.051ZM58.7579 257.678C57.869 256.475 56.9586 255.625 56.0264 255.128C55.0738 254.629 54.0746 254.473 53.029 254.662C51.9746 254.839 50.8634 255.359 49.6955 256.222C48.5157 257.093 47.6922 258.002 47.2247 258.949C46.7367 259.893 46.5974 260.89 46.8068 261.938C46.9957 262.984 47.5346 264.108 48.4234 265.312L49.8351 267.223L60.1696 259.589L58.7579 257.678Z" fill="#BFCCF4"></path>
    <path d="M50.1992 242.646L36.0518 250.247L31.2205 241.254L32.6159 240.505L36.6142 247.947L41.2266 245.469L37.4366 238.414L38.8125 237.675L42.6026 244.729L47.9709 241.845L43.9726 234.403L45.3679 233.654L50.1992 242.646Z" fill="#BFCCF4"></path>
    <path d="M41.648 226.143L26.5906 231.729L24.9915 227.418C24.1804 225.231 23.9394 223.506 24.2683 222.242C24.5835 220.983 25.4974 220.073 27.01 219.512C28.5089 218.956 29.8038 219.031 30.8948 219.737C31.972 220.448 32.8906 221.828 33.6506 223.877L35.0508 227.652L33.607 228.187L32.2833 224.619C31.6916 223.024 31.0388 221.96 30.3248 221.427C29.5921 220.885 28.7169 220.803 27.6993 221.181C26.6817 221.558 26.0787 222.189 25.8901 223.072C25.6827 223.947 25.8749 225.182 26.4666 226.777L27.4842 229.52L41.0359 224.493L41.648 226.143ZM38.2508 216.985L34.1207 227.105L33.3326 224.981L37.4398 214.799L38.2508 216.985Z" fill="#BFCCF4"></path>
    <path d="M35.1761 207.133L19.6132 211.098L19.1624 209.328L34.7253 205.364L35.1761 207.133Z" fill="#BFCCF4"></path>
    <path d="M32.7886 198.205L16.8744 200.364L16.6052 198.38L28.5856 188.007L28.5797 187.964L15.4341 189.747L15.1975 188.003L31.1117 185.844L31.3779 187.806L19.4005 198.201L19.4064 198.244L32.552 196.461L32.7886 198.205Z" fill="#BFCCF4"></path>
    <path d="M30.5364 167.458C30.4743 169.246 30.091 170.774 29.3866 172.041C28.6827 173.293 27.7031 174.242 26.4479 174.889C25.178 175.534 23.693 175.828 21.9927 175.768C20.2777 175.709 18.8165 175.313 17.6092 174.581C16.4019 173.85 15.4904 172.842 14.8746 171.559C14.2593 170.261 13.9822 168.732 14.0433 166.973C14.0769 166.006 14.2187 165.093 14.4686 164.236C14.7039 163.378 15.0536 162.605 15.5178 161.917L17.0188 162.432C16.6006 163.063 16.2749 163.778 16.0417 164.577C15.809 165.361 15.6779 166.179 15.6483 167.029C15.6005 168.407 15.823 169.603 16.3161 170.618C16.8096 171.619 17.5454 172.407 18.5233 172.984C19.487 173.546 20.6651 173.851 22.0576 173.9C23.4501 173.948 24.6539 173.726 25.6689 173.233C26.6699 172.724 27.4515 171.981 28.0138 171.003C28.5766 170.01 28.8825 168.809 28.9314 167.402C28.9584 166.625 28.9045 165.853 28.7697 165.085C28.6355 164.303 28.4317 163.621 28.1585 163.039L28.8286 163.392L22.9141 163.187L22.7056 169.189L21.1885 169.136L21.4582 161.375L29.5053 161.655C29.8599 162.43 30.1294 163.335 30.3136 164.369C30.4978 165.402 30.5721 166.432 30.5364 167.458Z" fill="#BFCCF4"></path>
    <path d="M40.2194 100.644L38.842 101.272L37.2958 97.7412L34.4899 100.365L33.4732 99.2209L36.3144 96.6682L32.9943 94.8069L33.7629 93.4724L37.039 95.41L37.8212 91.6715L39.321 91.9767L38.4597 95.7204L42.2896 95.2859L42.4373 96.7927L38.6212 97.159L40.2194 100.644Z" fill="#BFCCF4"></path>
    <path d="M87.5023 57.0983L78.7325 43.6442L87.708 37.7936L88.585 39.139L81.0839 44.0285L84.2194 48.8388L91.3519 44.1896L92.2169 45.5166L85.0844 50.1658L88.9768 56.1372L87.5023 57.0983Z" fill="#BFCCF4"></path>
    <path d="M104.221 46.7757L96.883 32.4901L98.5072 31.6558L105.845 45.9414L104.221 46.7757Z" fill="#BFCCF4"></path>
    <path d="M112.426 42.5257L106.559 27.5757L108.239 26.9167L113.519 40.3717L122.018 37.0365L122.605 38.5315L112.426 42.5257Z" fill="#BFCCF4"></path>
    <path d="M129.807 35.7091L126.437 20.0066L128.674 19.5265L136.109 28.799L136.152 28.7898L139.128 17.2832L141.365 16.8032L144.735 32.5057L143.014 32.875L140.217 19.8397L140.174 19.849L137.394 30.5933L135.716 30.9533L128.773 22.2954L128.73 22.3046L131.527 35.3399L129.807 35.7091Z" fill="#BFCCF4"></path>
    <path d="M156.628 30.4576L156.319 14.4006L158.606 14.3564L164.134 24.8777L164.178 24.8769L169.296 14.1501L171.584 14.106L171.894 30.163L170.134 30.1969L169.877 16.8674L169.833 16.8683L165.053 26.8844L163.337 26.9175L158.175 17.0933L158.131 17.0941L158.388 30.4236L156.628 30.4576Z" fill="#BFCCF4"></path>
    <path d="M182.019 30.3252L190.548 15.397L192.918 15.7649L196.519 32.5764L194.606 32.2794L191.511 17.0826L191.467 17.0759L183.932 30.6222L182.019 30.3252ZM185.502 26.3909L185.748 24.804L194.661 26.1877L194.415 27.7747L185.502 26.3909Z" fill="#BFCCF4"></path>
    <path d="M204.478 34.1207L209.32 18.8081L210.998 19.3387L208.876 26.0511L208.918 26.0644L219.095 21.8991L221.277 22.5889L210.388 27.1062L216.644 37.9679L214.463 37.2781L208.579 27.1342L208.537 27.1209L206.156 34.6514L204.478 34.1207Z" fill="#BFCCF4"></path>
    <path d="M224.365 40.9652L230.841 26.2689L232.512 27.0052L226.036 41.7015L224.365 40.9652Z" fill="#BFCCF4"></path>
    <path d="M233.004 44.6027L241.122 30.7452L242.849 31.7571L243.623 47.585L243.661 47.6073L250.366 36.1606L251.885 37.0502L243.768 50.9077L242.059 49.9069L241.266 34.0679L241.228 34.0456L234.523 45.4923L233.004 44.6027Z" fill="#BFCCF4"></path>
    <path d="M258.569 61.7051C257.199 60.5549 256.231 59.3122 255.667 57.977C255.113 56.6512 254.969 55.2948 255.233 53.908C255.506 52.5099 256.189 51.1592 257.283 49.8559C258.386 48.5414 259.598 47.6338 260.918 47.1332C262.238 46.6326 263.593 46.5348 264.983 46.8401C266.385 47.1547 267.76 47.8777 269.108 49.009C269.85 49.6312 270.481 50.3047 271.003 51.0295C271.533 51.743 271.927 52.4946 272.184 53.2842L270.854 54.15C270.614 53.4319 270.251 52.7349 269.765 52.0591C269.291 51.3927 268.727 50.7861 268.076 50.2393C267.02 49.353 265.94 48.7916 264.837 48.555C263.744 48.3278 262.67 48.4218 261.613 48.8369C260.577 49.2503 259.611 49.9906 258.715 51.058C257.82 52.1253 257.254 53.2107 257.017 54.3141C256.801 55.4156 256.905 56.4892 257.33 57.5348C257.766 58.5897 258.523 59.5698 259.602 60.4748C260.197 60.9745 260.839 61.4077 261.527 61.7743C262.226 62.1504 262.889 62.41 263.516 62.5529L262.824 62.8632L266.628 58.3299L262.028 54.4692L263.003 53.3064L268.952 58.2984L263.777 64.4665C262.947 64.2683 262.069 63.9235 261.141 63.4321C260.213 62.9407 259.356 62.365 258.569 61.7051Z" fill="#BFCCF4"></path>
    <path d="M305.271 110.235L305.618 108.761L309.356 109.702L309.001 105.877L310.528 105.774L310.805 109.583L314.311 108.099L314.895 109.524L311.356 110.927L313.832 113.835L312.672 114.834L310.24 111.86L308.238 115.153L306.956 114.347L309.004 111.106L305.271 110.235Z" fill="#BFCCF4"></path>
  </symbol>
</svg>